# xmcd
#
# Track frame offsets:
#	150
#	33788
#	77368
#	113872
#	145313
#	169149
#	203510
#	237494
#	271509
#
# Disc length: 4032 seconds
# Revision: 0
# Processed by: cddbd v1.5.2PL0 Copyright (c) Steve Scherf et al.
# Submitted via: dBpowerAMP V12.0
#
DISCID=690fbe09
DTITLE=Hilary Mantel - Wölfe CD7
DYEAR=1900
DGENRE=
TTITLE0=064
TTITLE1=065
TTITLE2=066
TTITLE3=067
TTITLE4=068
TTITLE5=069
TTITLE6=070
TTITLE7=071
TTITLE8=072
EXTD=
EXTT0=
EXTT1=
EXTT2=
EXTT3=
EXTT4=
EXTT5=
EXTT6=
EXTT7=
EXTT8=
PLAYORDER=
